# xmcd
#
# Track frame offsets:
#	150
#	12977
#	28805
#	40415
#	51692
#	61545
#	74145
#	86292
#	110087
#	121695
#	133817
#	148340
#	160592
#	172585
#	186985
#	201335
#	213787
#	231837
#
# Disc length: 3286
#
# Revision: 1
# Processed by: cddbd v1.5.1PL0 Copyright (c) Steve Scherf et al.
# Submitted via: FreeRIP 2.51 
# Normalized: r0:TDELIM( - )
#
DISCID=070cd412
DTITLE=United Colors Of Music - Blues
DYEAR=1996
DGENRE=Blues
TTITLE0=Muddy Waters - Hoochie Coochie Man
TTITLE1=Howlin' Wolf - I Ain't Superstious
TTITLE2=Sonny Boy Williamson - Bring It On Home
TTITLE3=John Lee Hooker - Boom Boom
TTITLE4=Buddy Guy - First Time I Met The Blues
TTITLE5=Albert King - California Blues
TTITLE6=Jimmy Reed - Honest I Do
TTITLE7=Memphis Slim - Rock Me Baby
TTITLE8=Etta James - I Would Rather Go Blind
TTITLE9=Elmore James - The Sun Is Shining
TTITLE10=Lightnin' Hopkins' - Santa F Blues
TTITLE11=Otis Spann - I'm In Love With You Baby
TTITLE12=J. B. Lenoir - When I'm Drinking
TTITLE13=Otis Rush - So Many Roads So Many Trains
TTITLE14=John Brim - Rattlesnake
TTITLE15=Little Walter - Key To The Highway
TTITLE16=Little Walter and Otis Rush - May Be The Last Time
TTITLE17=Jimmy Witherspoon - Going Down Slow
EXTD=
EXTT0=
EXTT1=
EXTT2=
EXTT3=
EXTT4=
EXTT5=
EXTT6=
EXTT7=
EXTT8=
EXTT9=
EXTT10=
EXTT11=
EXTT12=
EXTT13=
EXTT14=
EXTT15=
EXTT16=
EXTT17=
PLAYORDER=
